<svg width="32" height="32" viewBox="0 0 32 32" fill="none" xmlns="http://www.w3.org/2000/svg">
<circle cx="16" cy="16" r="16" fill="#229ED9"/>
<path d="M23.5 10.5L20.5 22.5C20.5 22.5 20.1 23.5 19 23.5C18.5 23.5 18.1 23.1 17.8 22.8L14.5 19.8L12.7 21.5C12.7 21.5 12.5 21.7 12.2 21.7C11.9 21.7 11.8 21.4 11.8 21.2L11.5 17.5L20.5 12.5C20.5 12.5 21 12.2 20.9 11.8C20.8 11.4 20.2 11.6 20.2 11.6L9.5 15.5C9.5 15.5 9 15.7 9 16.1C9 16.5 9.6 16.7 9.6 16.7L13.1 17.8L17.5 20.7L19.5 13.5" fill="#fff"/>
</svg> 